# xmcd
#
# Track frame offsets:
#	150
#	15308
#	39704
#	52978
#	69358
#	81499
#	95518
#	117277
#	137505
#	151238
#	165392
#	182140
#
# Disc length: 2595 seconds
#
# Revision: 1
# Processed by: cddbd v1.5.1PL2 Copyright (c) Steve Scherf et al.
# Submitted via: CDmax 2.0
#
DISCID=900a210c
DTITLE=Debra Lyn Neufeld - Lock Up Your Sons
DYEAR=2004
DGENRE=Blues
TTITLE0=So Hard
TTITLE1=Evil One
TTITLE2=You're All I Want
TTITLE3=Do What You Do
TTITLE4=Rag Doll Blues
TTITLE5=Sweet Mercy Blues
TTITLE6=Don't You Open Your Heart
TTITLE7=I'm Alright
TTITLE8=Sweet Insane
TTITLE9=How Can I
TTITLE10=Heavy Wait
TTITLE11=Attitude Town
EXTD=
EXTT0=
EXTT1=
EXTT2=
EXTT3=
EXTT4=
EXTT5=
EXTT6=
EXTT7=
EXTT8=
EXTT9=
EXTT10=
EXTT11=
PLAYORDER=
